<?xml version="1.0" standalone="no"?>
<!-- Generator: Adobe Fireworks 10, Export SVG Extension by Aaron Beall (http://fireworks.abeall.com) . Version: 0.6.1  -->
<!DOCTYPE svg PUBLIC "-//W3C//DTD SVG 1.1//EN" "http://www.w3.org/Graphics/SVG/1.1/DTD/svg11.dtd">
<svg id="face1.fw-Page%201" viewBox="0 0 150 150" style="background-color:#ffffff00" version="1.1"
	xmlns="http://www.w3.org/2000/svg" xmlns:xlink="http://www.w3.org/1999/xlink" xml:space="preserve"
	x="0px" y="0px" width="150px" height="150px"
>
	<g id="Layer%201">
		<path d="M 36.8954 73 C 36.8954 73 21.2704 86.625 40.8954 99 L 36.8954 73 Z" stroke="#ffffff00" stroke-width="1" fill="#eb8555"/>
		<path d="M 114 73 C 114 73 129.625 86.625 110 99 L 114 73 Z" stroke="#ffffff00" stroke-width="1" fill="#eb8555"/>
		<path d="M 40.625 48.5 L 38 65 L 38 86 L 47 116 L 65 107 L 95 111 L 106 116 L 111 95 L 114 60 L 101 46 L 40.625 48.5 Z" stroke="#ffffff00" stroke-width="1" fill="#e47e4e"/>
		<path d="M 48 53 C 48 53 46.4655 54.5345 38 63 C 37.625 63.375 39 63 39 63 L 39 85 C 39 85 49.75 94.875 50 106 C 50 106 74.25 92.75 98 105 C 98 105 103.125 84.875 110 88 L 111 59 C 111 59 101.125 48.75 82.5 53 C 82.5 53 71.625 54.125 48 53 Z" stroke="#ffffff00" stroke-width="1" fill="#f9b77d"/>
		<path d="M 116 66 C 116 66 114.5 16.25 78 15 C 78 15 63.75 18.5 66 13 C 66 13 45 16.75 41 27 C 41 27 22.25 49.5 61 53 C 61 53 110.5 44.5 110 60 C 110 60 114.25 65 111 94 L 116 66 Z" stroke="#ffffff00" stroke-width="1" fill="#8c613e"/>
		<path d="M 42 43 C 42 43 31.625 45.25 38 83 L 42 110 C 42 110 46.5 119.875 67 135 L 85 136 C 85 136 107.5 116.375 108 114 L 112 90 L 111 90 L 106 107 C 106 107 89.75 97.625 65 100 C 65 100 55.625 102.25 47 108 C 47 108 30.75 72.5 44 46 L 42 43 Z" stroke="#ffffff00" stroke-width="1" fill="#8c613e"/>
		<path d="M 42 27 C 42 27 45.5 49.5 77 42 C 77 42 103 37.75 111 42 C 111 42 99 10.875 69 18 C 69 18 64 18 65 16 C 65 16 46.125 16.375 42 27 Z" stroke="#ffffff00" stroke-width="1" fill="#9f7658"/>
		<path d="M 55 114 C 55 114 75 99 98 114 L 83 127 L 71 127 L 55 114 Z" stroke="#ffffff00" stroke-width="1" fill="#fbb776"/>
		<path d="M 61 110 C 61 110 70.375 117.625 91 110 C 91 110 77.125 104.625 61 110 Z" stroke="#ffffff00" stroke-width="1" fill="#feffff"/>
		<path d="M 75 79 C 75 79 71.25 89.375 70 91 C 70 91 73.5 100.375 76 96 C 76 96 74 90.25 75 79 Z" stroke="#ffffff00" stroke-width="1" fill="#e57f4f"/>
		<path id="Ellipse" d="M 84 78 C 84 74.134 86.0147 71 88.5 71 C 90.9853 71 93 74.134 93 78 C 93 81.866 90.9853 85 88.5 85 C 86.0147 85 84 81.866 84 78 Z" stroke="#ffffff00" stroke-width="1" fill="#482e17"/>
		<path id="Ellipse2" d="M 88 76 C 88 74.8954 88.6716 74 89.5 74 C 90.3284 74 91 74.8954 91 76 C 91 77.1046 90.3284 78 89.5 78 C 88.6716 78 88 77.1046 88 76 Z" stroke="#ffffff00" stroke-width="1" fill="#ffffff"/>
		<path id="Ellipse3" d="M 55 78 C 55 74.134 57.0147 71 59.5 71 C 61.9853 71 64 74.134 64 78 C 64 81.866 61.9853 85 59.5 85 C 57.0147 85 55 81.866 55 78 Z" stroke="#ffffff00" stroke-width="1" fill="#482e17"/>
		<path d="M 81 67 C 81 67 97 62.5 103 68 C 103 68 107.5 65.5 100 62 C 100 62 89.125 57.75 80 63 C 80 63 77.625 67.5 81 67 Z" stroke="#ffffff00" stroke-width="1" fill="#753e15"/>
		<path d="M 66.5271 67 C 66.5271 67 50.5271 62.5 44.5271 68 C 44.5271 68 40.0271 65.5 47.5271 62 C 47.5271 62 58.4021 57.75 67.5271 63 C 67.5271 63 69.9021 67.5 66.5271 67 Z" stroke="#ffffff00" stroke-width="1" fill="#753e15"/>
		<path id="Ellipse4" d="M 58 76 C 58 74.8954 58.6716 74 59.5 74 C 60.3284 74 61 74.8954 61 76 C 61 77.1046 60.3284 78 59.5 78 C 58.6716 78 58 77.1046 58 76 Z" stroke="#ffffff00" stroke-width="1" fill="#ffffff"/>
	</g>
</svg>