<?xml version="1.0" standalone="no"?>
<!-- Generator: Adobe Fireworks 10, Export SVG Extension by Aaron Beall (http://fireworks.abeall.com) . Version: 0.6.1  -->
<!DOCTYPE svg PUBLIC "-//W3C//DTD SVG 1.1//EN" "http://www.w3.org/Graphics/SVG/1.1/DTD/svg11.dtd">
<svg id="face5.fw-Page%201" viewBox="0 0 150 150" style="background-color:#ffffff00" version="1.1"
	xmlns="http://www.w3.org/2000/svg" xmlns:xlink="http://www.w3.org/1999/xlink" xml:space="preserve"
	x="0px" y="0px" width="150px" height="150px"
>
	<g id="Layer%201">
		<g>
			<path d="M 540 47 C 540 47 550.5 49.75 573 39 C 573 39 588.5 30.25 606 39 L 605.25 82.25 C 605.25 82.25 612 48.5 612 39 L 591 19 L 540 37 L 540 47 Z" stroke="#ffffff00" stroke-width="1" fill="#f29558"/>
			<path d="M 39 53 L 124 54 C 124 54 142.6666 132.6667 121 138 L 24 140 C 24 140 27.3334 66.6667 39 53 Z" stroke="#ffffff00" stroke-width="1" fill="#692210"/>
			<path d="M 116 68 C 116 68 122.8333 56.5 123 73 C 123 73 123.8334 84.8333 115 88 C 106.1666 91.1667 115 89 115 89 C 115 89 115 68.6667 116 68 Z" stroke="#ffffff00" stroke-width="1" fill="#ee8857"/>
			<path d="M 46.095 68 C 46.095 68 39.2617 56.5 39.095 73 C 39.095 73 38.2616 84.8333 47.095 88 C 55.9283 91.1667 47.095 89 47.095 89 C 47.095 89 47.095 68.6667 46.095 68 Z" stroke="#ffffff00" stroke-width="1" fill="#ee8857"/>
			<path d="M 45 55 L 48 96 C 48 96 60.625 123.125 84 122 C 84 122 109 109.875 114 98 C 114 98 119 56.625 118 55 C 117 53.375 119 54 119 54 C 119 54 45.625 57.625 45 55 Z" stroke="#ffffff00" stroke-width="1" fill="#fcbf7e"/>
			<path d="M 29 137 L 18 142 C 18 142 26.8334 22.1667 63 13 C 63 13 101 -9.1667 121 40 C 121 40 142.6667 106.3333 135 142 C 135 142 123.8334 133.1667 116 133 C 116 133 131.8333 71.8333 124 55 C 124 55 42.1666 56.8333 40 54 C 40 54 26.8334 73.1667 29 137 Z" stroke="#ffffff00" stroke-width="1" fill="#b24325"/>
			<path id="Ellipse" d="M 60 74 C 60 70.134 61.567 67 63.5 67 C 65.433 67 67 70.134 67 74 C 67 77.866 65.433 81 63.5 81 C 61.567 81 60 77.866 60 74 Z" stroke="#ffffff00" stroke-width="1" fill="#67401f"/>
			<path id="Ellipse2" d="M 63 72.5 C 63 71.1193 63.6716 70 64.5 70 C 65.3284 70 66 71.1193 66 72.5 C 66 73.8807 65.3284 75 64.5 75 C 63.6716 75 63 73.8807 63 72.5 Z" stroke="#ffffff00" stroke-width="1" fill="#c4b39f"/>
			<path id="Ellipse3" d="M 95 71 C 95 67.134 96.567 64 98.5 64 C 100.433 64 102 67.134 102 71 C 102 74.866 100.433 78 98.5 78 C 96.567 78 95 74.866 95 71 Z" stroke="#ffffff00" stroke-width="1" fill="#67401f"/>
			<path id="Ellipse4" d="M 98 69.5 C 98 68.1193 98.6716 67 99.5 67 C 100.3284 67 101 68.1193 101 69.5 C 101 70.8807 100.3284 72 99.5 72 C 98.6716 72 98 70.8807 98 69.5 Z" stroke="#ffffff00" stroke-width="1" fill="#c4b39f"/>
			<path d="M 80 81 C 80 81 76 89.3333 75 89 C 74 88.6667 75 90 75 90 C 75 90 78.5 93 81 92 C 83.5 91 82 92 82 92 C 82 92 78.6666 91.3333 80 81 Z" stroke="#ffffff00" stroke-width="1" fill="#ea8857"/>
			<path d="M 68 103 C 68 103 81 106.5 93 102 C 93 102 93.625 103 93 103 C 93 103 81.875 109.5 69 104 C 69 104 66.125 103.75 68 103 Z" stroke="#ffffff00" stroke-width="1" fill="#ea8857"/>
			<path d="M 108.4709 60 C 108.4709 60 99.0959 51.875 89.4709 56 C 89.4709 56 84.7209 55.625 89.4709 53 C 89.4709 53 102.8459 51.75 106.4709 55 C 106.4709 55 113.0959 61.75 108.4709 60 Z" stroke="#ffffff00" stroke-width="1" fill="#69291d"/>
			<path d="M 53 60 C 53 60 62.375 51.875 72 56 C 72 56 76.75 55.625 72 53 C 72 53 58.625 51.75 55 55 C 55 55 48.375 61.75 53 60 Z" stroke="#ffffff00" stroke-width="1" fill="#69291d"/>
		</g>
	</g>
</svg>