<?xml version="1.0" standalone="no"?>
<!-- Generator: Adobe Fireworks 10, Export SVG Extension by Aaron Beall (http://fireworks.abeall.com) . Version: 0.6.1  -->
<!DOCTYPE svg PUBLIC "-//W3C//DTD SVG 1.1//EN" "http://www.w3.org/Graphics/SVG/1.1/DTD/svg11.dtd">
<svg id="face2.fw-Page%201" viewBox="0 0 150 150" style="background-color:#ffffff00" version="1.1"
	xmlns="http://www.w3.org/2000/svg" xmlns:xlink="http://www.w3.org/1999/xlink" xml:space="preserve"
	x="0px" y="0px" width="150px" height="150px"
>
	<g id="Layer%201">
		<path d="M 93 99 L 92 111 C 92 111 63.3333 143 47 130 C 47 130 27.1667 115.1667 27 104 C 27 104 25.1667 80.6667 26 80 L 68 37 L 91 50 L 98 71 L 101 79 C 101 79 109 100.1667 93 99 Z" stroke="#ffffff00" stroke-width="1" fill="#fcbf7e"/>
		<path d="M 26 79 L 27 82 C 27 82 80 59.1667 82 56 C 82 56 95 85 96 85 C 96 85 96.5 99.8333 95 100 C 95 100 108.5 95.1667 102 79 L 85 45 L 31 73 L 26 79 Z" stroke="#ffffff00" stroke-width="1" fill="#f38a5b"/>
		<path d="M 86 24 C 86 24 102 -1.1667 126 40 C 126 40 127.6666 54.3333 112 58 L 86 24 Z" stroke="#ffffff00" stroke-width="1" fill="#422817"/>
		<path d="M 25 78 C 25 78 14 19.3333 77 20 C 77 20 102.1666 23 100 42 C 100 42 130.5 46.1667 98 82 C 98 82 82.8334 53.3333 85 51 C 85 51 27 78.6667 25 78 Z" stroke="#ffffff00" stroke-width="1" fill="#553923"/>
		<path d="M 30 58 C 30 58 39 26.8333 80 27 C 80 27 97.8334 29.8333 81 24 C 81 24 56 16 36 39 C 36 39 28.6667 53.6667 30 58 Z" stroke="#ffffff00" stroke-width="1" fill="#786350"/>
		<path d="M 52.6423 86.5109 C 52.6423 86.5109 53.9202 93.2554 51.9122 96.0837 C 51.9122 96.0837 49.1742 97.8242 54.1028 99.5648 C 54.1028 99.5648 51.4558 103.916 46.071 96.0837 C 46.071 96.0837 52.825 87.925 52.6423 86.5109 Z" stroke="#ffffff00" stroke-width="1" fill="#aa7446"/>
		<path id="Ellipse" d="M 77.3052 84.2829 C 77.3052 81.0836 75.707 78.4901 73.7356 78.4901 C 71.764 78.4901 70.166 81.0836 70.166 84.2829 C 70.166 87.4822 71.764 90.0757 73.7356 90.0757 C 75.707 90.0757 77.3052 87.4822 77.3052 84.2829 Z" stroke="#ffffff00" stroke-width="1" fill="#211b1f"/>
		<path id="Ellipse2" d="M 72.8431 82.5005 C 72.8431 81.7622 72.4436 81.1637 71.9507 81.1637 C 71.4579 81.1637 71.0583 81.7622 71.0583 82.5005 C 71.0583 83.2388 71.4579 83.8373 71.9507 83.8373 C 72.4436 83.8373 72.8431 83.2388 72.8431 82.5005 Z" stroke="#ffffff00" stroke-width="1" fill="#cdd6db"/>
		<path id="Ellipse3" d="M 51.4255 82.5005 C 51.4255 79.3012 49.8274 76.7077 47.856 76.7077 C 45.8843 76.7077 44.2863 79.3012 44.2863 82.5005 C 44.2863 85.6998 45.8843 88.2933 47.856 88.2933 C 49.8274 88.2933 51.4255 85.6998 51.4255 82.5005 Z" stroke="#ffffff00" stroke-width="1" fill="#211b1f"/>
		<path id="Ellipse4" d="M 46.9635 80.7181 C 46.9635 79.9798 46.564 79.3813 46.071 79.3813 C 45.5782 79.3813 45.1787 79.9798 45.1787 80.7181 C 45.1787 81.4564 45.5782 82.0549 46.071 82.0549 C 46.564 82.0549 46.9635 81.4564 46.9635 80.7181 Z" stroke="#ffffff00" stroke-width="1" fill="#cdd6db"/>
		<path d="M 90.6912 75.8165 C 90.6912 75.8165 75.5203 64.5651 63.0267 70.4693 C 63.0267 70.4693 62.3574 73.0315 74.6279 74.0341 C 74.6279 74.0341 83.775 73.9227 88.0139 77.5989 C 88.0139 77.5989 92.1414 77.4875 90.6912 75.8165 Z" stroke="#ffffff00" stroke-width="1" fill="#553923"/>
		<path d="M 37.147 72.2517 C 37.147 72.2517 46.7404 69.2439 52.3179 74.0341 C 52.3179 74.0341 56.4453 73.3657 52.3179 68.6869 C 52.3179 68.6869 35.2507 65.6791 37.147 72.2517 Z" stroke="#ffffff00" stroke-width="1" fill="#553923"/>
		<path d="M 44.2863 111.4645 L 67.4888 111.4645 C 67.4888 111.4645 55.8875 126.1693 44.2863 111.4645 Z" stroke="#ffffff00" stroke-width="1" fill="#ffffff"/>
	</g>
</svg>