<?xml version="1.0" standalone="no"?>
<!-- Generator: Adobe Fireworks 10, Export SVG Extension by Aaron Beall (http://fireworks.abeall.com) . Version: 0.6.1  -->
<!DOCTYPE svg PUBLIC "-//W3C//DTD SVG 1.1//EN" "http://www.w3.org/Graphics/SVG/1.1/DTD/svg11.dtd">
<svg id="face4.fw-Page%201" viewBox="0 0 150 150" style="background-color:#ffffff00" version="1.1"
	xmlns="http://www.w3.org/2000/svg" xmlns:xlink="http://www.w3.org/1999/xlink" xml:space="preserve"
	x="0px" y="0px" width="150px" height="150px"
>
	<g id="Layer%201">
		<path d="M 40 85 C 40 85 39.625 112.75 40 113 C 40 113 46 126.75 56 138 C 56 138 71.375 142.125 76 139 C 76 139 97.75 126.375 103 119 L 111 82 L 115 46 L 46 42 L 40.25 64 C 40.25 64 37.375 82.875 40 85 Z" stroke="#ffffff00" stroke-width="1" fill="#ab6d3a"/>
		<path d="M 61.3636 85 C 61.3636 85 62.7954 92.5679 60.5454 95.7415 C 60.5454 95.7415 57.4773 97.6945 63 99.6475 C 63 99.6475 60.0341 104.53 54 95.7415 C 54 95.7415 61.5681 86.5868 61.3636 85 Z" stroke="#ffffff00" stroke-width="1" fill="#66452b"/>
		<path id="Ellipse" d="M 89 82.5 C 89 78.9101 87.2092 76 85 76 C 82.7908 76 81 78.9101 81 82.5 C 81 86.0899 82.7908 89 85 89 C 87.2092 89 89 86.0899 89 82.5 Z" stroke="#ffffff00" stroke-width="1" fill="#211b1f"/>
		<path id="Ellipse2" d="M 84 80.5 C 84 79.6716 83.5522 79 83 79 C 82.4478 79 82 79.6716 82 80.5 C 82 81.3284 82.4478 82 83 82 C 83.5522 82 84 81.3284 84 80.5 Z" stroke="#ffffff00" stroke-width="1" fill="#cdd6db"/>
		<path id="Ellipse3" d="M 60 80.5 C 60 76.9101 58.2092 74 56 74 C 53.7908 74 52 76.9101 52 80.5 C 52 84.0899 53.7908 87 56 87 C 58.2092 87 60 84.0899 60 80.5 Z" stroke="#ffffff00" stroke-width="1" fill="#211b1f"/>
		<path id="Ellipse4" d="M 55 78.5 C 55 77.6716 54.5522 77 54 77 C 53.4478 77 53 77.6716 53 78.5 C 53 79.3284 53.4478 80 54 80 C 54.5522 80 55 79.3284 55 78.5 Z" stroke="#ffffff00" stroke-width="1" fill="#cdd6db"/>
		<path d="M 104 73 C 104 73 87 60.375 73 67 C 73 67 72.25 69.875 86 71 C 86 71 96.25 70.875 101 75 C 101 75 105.625 74.875 104 73 Z" stroke="#ffffff00" stroke-width="1" fill="#754018"/>
		<path d="M 44 69 C 44 69 54.75 65.625 61 71 C 61 71 65.625 70.25 61 65 C 61 65 41.875 61.625 44 69 Z" stroke="#ffffff00" stroke-width="1" fill="#7a4519"/>
		<path d="M 44 57 C 44 57 54.5 59.75 77 49 C 77 49 92.5 40.25 110 49 L 109.25 92.25 C 109.25 92.25 116 58.5 116 49 L 95 29 L 44 47 L 44 57 Z" stroke="#ffffff00" stroke-width="1" fill="#623f22"/>
		<path d="M 52 113 L 78 113 C 78 113 65 129.5 52 113 Z" stroke="#ffffff00" stroke-width="1" fill="#ffffff"/>
		<path d="M 119 77 L 111 96 C 111 96 123.25 98.75 119 77 Z" stroke="#ffffff00" stroke-width="1" fill="#ab6d3a"/>
		<path d="M 105.5 105 C 105.5 105 139.3334 50.6667 115 34 L 110 33 C 110 33 109.3334 -4 61 14 C 61 14 39.6666 32.6667 32 13 C 32 13 14.2523 41.7344 39.3578 48.7024 C 41.5614 49.314 44.0951 49.7579 47 50 C 47 50 33.1666 43.75 40.5 95.75 C 40.5 95.75 36 60.6667 44 53 C 44 53 53.3334 52.3333 62 46 C 62 46 92.6666 34.3333 105 47 C 105 47 111.6666 45.3333 112 57 L 105.5 105 Z" stroke="#ffffff00" stroke-width="1" fill="#111111"/>
		<path d="M 32 15 C 32 15 15 45 40 43 C 40 43 60.6666 43 70 36 C 79.3334 29 72 34 72 34 C 72 34 99 36.6667 101 19 C 101 19 89.3334 1.6667 60 15 C 60 15 40.3334 35.6667 32 15 Z" stroke="#ffffff00" stroke-width="1" fill="#333333"/>
	</g>
</svg>