<?xml version="1.0" standalone="no"?>
<!-- Generator: Adobe Fireworks 10, Export SVG Extension by Aaron Beall (http://fireworks.abeall.com) . Version: 0.6.1  -->
<!DOCTYPE svg PUBLIC "-//W3C//DTD SVG 1.1//EN" "http://www.w3.org/Graphics/SVG/1.1/DTD/svg11.dtd">
<svg id="face-blank-Page%201" viewBox="0 0 150 150" style="background-color:#ffffff00" version="1.1"
	xmlns="http://www.w3.org/2000/svg" xmlns:xlink="http://www.w3.org/1999/xlink" xml:space="preserve"
	x="0px" y="0px" width="150px" height="150px"
>
	<g id="Layer%201">
		<path id="Ellipse" d="M 38.25 70.5 C 33.426 40.1779 52.4774 24.4694 75.7665 24.4694 C 99.0556 24.4694 120.3632 34.4118 113.3135 64.3718 C 100.5 72 101.5 103.25 101.5 103.25 C 101.5 103.25 89 125.25 82.25 126.75 C 77.345 126.75 69.7886 127.2589 65.25 125 C 57.9838 121.3836 48 110 45.25 101.5 C 42.25 87 40 81.5 38.25 70.5 Z" fill="#a3a3a3"/>
		<path d="M 59.2594 21.7165 C 59.2594 21.7165 98.3797 14.5816 112.2932 41.2418 C 124.9871 65.565 105.25 63.25 116.3782 78.1072 C 123.6851 87.8627 120 85 120 85 C 120 85 113.4712 82.4776 109.2503 78.4714 C 105.0293 74.4652 98.1625 68.3337 97.3951 56.6794 C 97.0695 51.7342 92.8748 49.412 88.1531 48.3771 C 86.6863 48.0556 83.5491 56.4719 83.5 55 C 83.25 47.5 74.3719 47.9387 74.3719 47.9387 C 74.3719 47.9387 40.9882 57.772 42.1394 76.3461 C 42.1394 76.3461 42 85.5 42 93.25 C 42 99.6288 21.0347 49.0313 47.8952 32.6424 C 47.8952 32.6424 43.6742 24.9943 38.6859 26.0869 C 33.6975 27.1795 44.058 22.4449 49.0463 23.9017 C 54.0347 25.3585 51.7324 12.9758 53.651 14.0684 C 55.5696 15.161 59.2594 21.7165 59.2594 21.7165 Z" fill="#666666"/>
		<path d="M 56.3856 72.1638 C 58.2171 70.7982 63.1803 67.2491 66.6097 66.9291 C 69.9473 66.6177 74.42 67.4091 74.6232 68.6331 C 74.83 69.879 70.2804 69.0958 67.0747 69.8452 C 63.7632 70.6194 54.4961 73.5725 56.3856 72.1638 Z" fill="#666666"/>
		<path d="M 99.796 72.6693 C 98.3106 71.4669 94.2856 68.3417 91.5043 68.0599 C 88.7976 67.7856 85.1703 68.4825 85.0055 69.5604 C 84.8378 70.6575 88.5274 69.9678 91.1272 70.6277 C 93.8128 71.3094 101.3283 73.9099 99.796 72.6693 Z" fill="#666666"/>
		<path id="Ellipse2" d="M 60.1875 82.6875 C 60.1875 80.1177 62.9388 77.9796 65.1899 77.9796 C 67.441 77.9796 70.2658 80.0628 70.2658 82.6327 C 70.2658 85.2025 67.441 87.2857 65.1899 87.2857 C 62.9388 87.2857 60.1875 85.2573 60.1875 82.6875 Z" fill="#333333"/>
		<path id="Ellipse3" d="M 85.7342 82.6327 C 85.7342 80.0628 88.559 77.9796 90.8101 77.9796 C 93.0612 77.9796 95.8861 80.0628 95.8861 82.6327 C 95.8861 85.2025 93.0612 87.2857 90.8101 87.2857 C 88.559 87.2857 85.7342 85.2025 85.7342 82.6327 Z" fill="#333333"/>
		<path d="M 78 82 L 78 98 C 78 98 75 101 73 101 C 72.1889 101 71.815 96.5979 73.6875 95.75 C 75.56 94.9021 78 82 78 82 Z" fill="#bababa"/>
		<path d="M 83 114 L 64 109 C 64 109 73 117.3333 83 114 Z" fill="#c8c8c8"/>
		<path id="Ellipse4" d="M 66 80.2 C 66 79.5372 66.5969 79 67.3333 79 C 68.0697 79 68.6667 79.5372 68.6667 80.2 C 68.6667 80.8627 68.0697 81.4 67.3333 81.4 C 66.5969 81.4 66 80.8627 66 80.2 Z" fill="#ffffff"/>
		<path id="Ellipse5" d="M 92.3333 80.8 C 92.3333 80.1373 92.9303 79.6 93.6667 79.6 C 94.4031 79.6 95 80.1373 95 80.8 C 95 81.4628 94.4031 82 93.6667 82 C 92.9303 82 92.3333 81.4628 92.3333 80.8 Z" fill="#ffffff"/>
		<path d="M 55 29 L 55 21 L 58 27 C 58 27 68 22.6667 78 26 C 88 29.3333 100 29.3333 105 39 C 110 48.6667 104.3333 60.3333 104 60 C 103.6667 59.6667 100.6667 39 93 41 C 85.3333 43 71.3333 34.3333 68 40 C 64.6667 45.6667 42.6667 43 42.3333 43.3333 C 42 43.6667 62.3333 34.3333 55 29 Z" fill="#737373"/>
	</g>
</svg>