<?xml version="1.0" standalone="no"?>
<!-- Generator: Adobe Fireworks 10, Export SVG Extension by Aaron Beall (http://fireworks.abeall.com) . Version: 0.6.1  -->
<!DOCTYPE svg PUBLIC "-//W3C//DTD SVG 1.1//EN" "http://www.w3.org/Graphics/SVG/1.1/DTD/svg11.dtd">
<svg id="face6.fw-Page%201" viewBox="0 0 150 150" style="background-color:#ffffff00" version="1.1"
	xmlns="http://www.w3.org/2000/svg" xmlns:xlink="http://www.w3.org/1999/xlink" xml:space="preserve"
	x="0px" y="0px" width="150px" height="150px"
>
	<g id="Layer%201">
		<g>
			<path d="M 115 80 C 115 80 115.375 107.75 115 108 C 115 108 109 121.75 99 133 C 99 133 83.625 137.125 79 134 C 79 134 57.25 121.375 52 114 L 44 77 L 40 41 L 109 37 L 114 57 C 114 57 117.625 77.875 115 80 Z" stroke="#ffffff00" stroke-width="1" fill="#fcbf7e"/>
			<path d="M 52 104 C 52 104 37.125 80.25 32 59 C 32 59 26.125 45.5 37 43 C 37 43 30.75 18 71 16 C 71 16 124.25 11.875 117 34 C 117 34 114.625 39.375 119 51 L 119 78 C 119 78 116 81.25 115.875 59.5 C 115.875 59.5 110.125 55.5 108.25 52.875 C 106.375 50.25 110 51 110 51 C 110 51 117 38.25 97 39 C 97 39 55.5 39.875 55 43 C 55 43 45.25 48.5 50 56 C 54.75 63.5 49 63 49 63 C 49 63 41.625 62.875 47 84 C 47 84 54.75 104 52 104 Z" stroke="#ffffff00" stroke-width="1" fill="#b44527"/>
			<path d="M 93.6364 80 C 93.6364 80 92.2046 87.5679 94.4546 90.7415 C 94.4546 90.7415 97.5227 92.6945 92 94.6475 C 92 94.6475 94.9659 99.53 101 90.7415 C 101 90.7415 93.4318 81.5868 93.6364 80 Z" stroke="#ffffff00" stroke-width="1" fill="#aa7446"/>
			<path d="M 76 108 C 76 108 90.875 111.125 100 106 C 100 106 101.75 107.375 90 111 C 90 111 77.1406 110.9688 76 108 Z" stroke="#ffffff00" stroke-width="1" fill="#a4693f"/>
			<path id="Ellipse" d="M 66 77.5 C 66 73.9101 67.7908 71 70 71 C 72.2092 71 74 73.9101 74 77.5 C 74 81.0899 72.2092 84 70 84 C 67.7908 84 66 81.0899 66 77.5 Z" stroke="#ffffff00" stroke-width="1" fill="#211b1f"/>
			<path id="Ellipse2" d="M 71 75.5 C 71 74.6716 71.4477 74 72 74 C 72.5523 74 73 74.6716 73 75.5 C 73 76.3284 72.5523 77 72 77 C 71.4477 77 71 76.3284 71 75.5 Z" stroke="#ffffff00" stroke-width="1" fill="#cdd6db"/>
			<path id="Ellipse3" d="M 95 75.5 C 95 71.9101 96.7908 69 99 69 C 101.2092 69 103 71.9101 103 75.5 C 103 79.0899 101.2092 82 99 82 C 96.7908 82 95 79.0899 95 75.5 Z" stroke="#ffffff00" stroke-width="1" fill="#211b1f"/>
			<path id="Ellipse4" d="M 100 73.5 C 100 72.6716 100.4477 72 101 72 C 101.5523 72 102 72.6716 102 73.5 C 102 74.3284 101.5523 75 101 75 C 100.4477 75 100 74.3284 100 73.5 Z" stroke="#ffffff00" stroke-width="1" fill="#cdd6db"/>
			<path d="M 52 68 C 52 68 69 55.375 83 62 C 83 62 83.75 64.875 70 66 C 70 66 59.75 65.875 55 70 C 55 70 50.375 69.875 52 68 Z" stroke="#ffffff00" stroke-width="1" fill="#62211b"/>
			<path d="M 112 64 C 112 64 101.25 60.625 95 66 C 95 66 90.375 65.25 95 60 C 95 60 114.125 56.625 112 64 Z" stroke="#ffffff00" stroke-width="1" fill="#5d2119"/>
			<path d="M 36 72 L 44 93 C 44 93 27.5 89.5 36 72 Z" stroke="#ffffff00" stroke-width="1" fill="#dc8452"/>
		</g>
	</g>
</svg>