<?xml version="1.0" standalone="no"?>
<!-- Generator: Adobe Fireworks 10, Export SVG Extension by Aaron Beall (http://fireworks.abeall.com) . Version: 0.6.1  -->
<!DOCTYPE svg PUBLIC "-//W3C//DTD SVG 1.1//EN" "http://www.w3.org/Graphics/SVG/1.1/DTD/svg11.dtd">
<svg id="Untitled-Page%201" viewBox="0 0 150 150" style="background-color:#ffffff00" version="1.1"
	xmlns="http://www.w3.org/2000/svg" xmlns:xlink="http://www.w3.org/1999/xlink" xml:space="preserve"
	x="0px" y="0px" width="150px" height="150px"
>
	<g id="Layer%201">
		<g>
			<g>
				<g>
					<g>
						<g>
							<path d="M 61 106 L 58 125 L 61 146 L 93 147 L 92 127 L 96 118 L 81 119 L 61 106 Z" stroke="#ffffff00" stroke-width="1" fill="#ffc079"/>
							<path d="M 61 106 L 61 110 L 91 147.375 L 93 126 L 96 119 L 83 120 L 61 106 Z" stroke="#ffffff00" stroke-width="1" fill="#ec9957"/>
						</g>
						<path d="M 117 67 C 117 67 117.375 94.75 117 95 C 117 95 111 108.75 101 120 C 101 120 85.625 124.125 81 121 C 81 121 59.25 108.375 54 101 L 46 64 L 42 28 L 111 24 L 116 44 C 116 44 119.625 64.875 117 67 Z" stroke="#ffffff00" stroke-width="1" fill="#fcbf7e"/>
					</g>
					<path d="M 53 91 C 53 91 38.125 67.25 33 46 C 33 46 27.125 32.5 38 30 C 38 30 31.75 5 72 3 C 72 3 125.25 -1.125 118 21 C 118 21 115.625 26.375 120 38 L 120 65 C 120 65 117 68.25 116.875 46.5 C 116.875 46.5 111.125 42.5 109.25 39.875 C 107.375 37.25 111 38 111 38 C 111 38 118 25.25 98 26 C 98 26 56.5 26.875 56 30 C 56 30 46.25 35.5 51 43 C 55.75 50.5 50 50 50 50 C 50 50 42.625 49.875 48 71 C 48 71 55.75 91 53 91 Z" stroke="#ffffff00" stroke-width="1" fill="#b44527"/>
				</g>
				<path d="M 95.6364 67 C 95.6364 67 94.2046 74.5679 96.4546 77.7415 C 96.4546 77.7415 99.5227 79.6945 94 81.6475 C 94 81.6475 96.9659 86.53 103 77.7415 C 103 77.7415 95.4318 68.5868 95.6364 67 Z" stroke="#ffffff00" stroke-width="1" fill="#aa7446"/>
			</g>
			<path d="M 78 95 C 78 95 92.875 98.125 102 93 C 102 93 103.75 94.375 92 98 C 92 98 79.1406 97.9688 78 95 Z" stroke="#ffffff00" stroke-width="1" fill="#a4693f"/>
			<g>
				<path id="Ellipse" d="M 68 64.5 C 68 60.9101 69.7908 58 72 58 C 74.2092 58 76 60.9101 76 64.5 C 76 68.0899 74.2092 71 72 71 C 69.7908 71 68 68.0899 68 64.5 Z" stroke="#ffffff00" stroke-width="1" fill="#211b1f"/>
				<path id="Ellipse2" d="M 73 62.5 C 73 61.6716 73.4477 61 74 61 C 74.5523 61 75 61.6716 75 62.5 C 75 63.3284 74.5523 64 74 64 C 73.4477 64 73 63.3284 73 62.5 Z" stroke="#ffffff00" stroke-width="1" fill="#cdd6db"/>
			</g>
			<g>
				<path id="Ellipse3" d="M 97 62.5 C 97 58.9101 98.7908 56 101 56 C 103.2092 56 105 58.9101 105 62.5 C 105 66.0899 103.2092 69 101 69 C 98.7908 69 97 66.0899 97 62.5 Z" stroke="#ffffff00" stroke-width="1" fill="#211b1f"/>
				<path id="Ellipse4" d="M 102 60.5 C 102 59.6716 102.4477 59 103 59 C 103.5523 59 104 59.6716 104 60.5 C 104 61.3284 103.5523 62 103 62 C 102.4477 62 102 61.3284 102 60.5 Z" stroke="#ffffff00" stroke-width="1" fill="#cdd6db"/>
			</g>
			<path d="M 53 55 C 53 55 70 42.375 84 49 C 84 49 84.75 51.875 71 53 C 71 53 60.75 52.875 56 57 C 56 57 51.375 56.875 53 55 Z" stroke="#ffffff00" stroke-width="1" fill="#62211b"/>
			<path d="M 113 51 C 113 51 102.25 47.625 96 53 C 96 53 91.375 52.25 96 47 C 96 47 115.125 43.625 113 51 Z" stroke="#ffffff00" stroke-width="1" fill="#5d2119"/>
		</g>
		<path d="M 38 59 L 46 80 C 46 80 29.5 76.5 38 59 Z" stroke="#ffffff00" stroke-width="1" fill="#dc8452"/>
	</g>
</svg>