<?xml version="1.0" encoding="UTF-8" standalone="no"?>
<!DOCTYPE svg PUBLIC "-//W3C//DTD SVG 1.1//EN" "http://www.w3.org/Graphics/SVG/1.1/DTD/svg11.dtd">
<svg width="100%" height="100%" viewBox="0 0 250 250" version="1.1" xmlns="http://www.w3.org/2000/svg" xmlns:xlink="http://www.w3.org/1999/xlink" xml:space="preserve" xmlns:serif="http://www.serif.com/" style="fill-rule:evenodd;clip-rule:evenodd;stroke-linejoin:round;stroke-miterlimit:1.41421;">
    <g transform="matrix(0.284529,0,0,0.258292,-195.832,-216.514)">
        <path d="M1433.78,978.414C1433.78,942.109 1407.02,912.634 1374.06,912.634L881.119,912.634C848.162,912.634 821.405,942.109 821.405,978.414L821.405,1624.22C821.405,1660.52 848.162,1690 881.119,1690L1374.06,1690C1407.02,1690 1433.78,1660.52 1433.78,1624.22L1433.78,978.414Z" style="fill:rgb(139,139,139);"/>
    </g>
    <g transform="matrix(0.26193,0,0,0.241377,-170.35,-194.63)">
        <path d="M1433.78,968.703C1433.78,937.758 1410.63,912.634 1382.11,912.634L873.075,912.634C844.557,912.634 821.405,937.758 821.405,968.703L821.405,1633.93C821.405,1664.88 844.557,1690 873.075,1690L1382.11,1690C1410.63,1690 1433.78,1664.88 1433.78,1633.93L1433.78,968.703Z" style="fill:rgb(181,181,181);"/>
    </g>
    <g transform="matrix(0.269346,-0.00083673,0.00084322,0.271435,-178.341,-224.474)">
        <ellipse cx="1128.15" cy="1226.88" rx="239.489" ry="230.694" style="fill:rgb(226,226,226);"/>
    </g>
    <g transform="matrix(0.263431,0,0,0.263431,-276.462,-171.438)">
        <circle cx="1340.51" cy="1344.68" r="76.809" style="fill:rgb(226,226,226);"/>
    </g>
    <g transform="matrix(0.0564766,0.033877,-0.10744,0.179114,117.627,-141.552)">
        <path d="M2007.87,992.126L1889.76,1393.7L2007.87,1464.57L2125.98,1393.7L2007.87,992.126Z" style="fill:rgb(89,89,89);"/>
    </g>
    <g transform="matrix(0.263431,0,0,0.263431,-161.248,-202.585)">
        <path d="M1181.1,1484.5L1181.1,1419.11L1322.84,1417.32L1322.84,1559.06L1086.61,1559.06L1086.61,1484.81L1181.1,1484.5Z" style="fill:white;"/>
    </g>
    <g transform="matrix(0.230733,0,0,0.263431,-124.772,-202.585)">
        <g>
            <rect x="1228.35" y="1440.94" width="80.909" height="94.488" style="fill:rgb(89,89,89);"/>
        </g>
    </g>
    <g transform="matrix(-0.000685517,0.11644,-0.132942,-0.000782664,335.716,52.4623)">
        <g>
            <path d="M1228.35,1535.43L1228.35,1482.11L1228.35,1440.94L1309.26,1440.94L1309.26,1535.43L1228.35,1535.43Z" style="fill:rgb(89,89,89);"/>
        </g>
    </g>
    <g transform="matrix(0.263431,0,0,0.263431,-248.041,-205.061)">
        <ellipse cx="1665.35" cy="930.264" rx="35.433" ry="32.626" style="fill:white;"/>
    </g>
    <g transform="matrix(0.263431,0,0,0.263431,-379.041,-205.061)">
        <ellipse cx="1665.35" cy="930.264" rx="35.433" ry="32.626" style="fill:white;"/>
    </g>
</svg>
