<?xml version="1.0" standalone="no"?>
<!-- Generator: Adobe Fireworks 10, Export SVG Extension by Aaron Beall (http://fireworks.abeall.com) . Version: 0.6.1  -->
<!DOCTYPE svg PUBLIC "-//W3C//DTD SVG 1.1//EN" "http://www.w3.org/Graphics/SVG/1.1/DTD/svg11.dtd">
<svg id="mantle-logo.fw-Page%201" viewBox="0 0 118 212" style="background-color:#ffffff00" version="1.1"
	xmlns="http://www.w3.org/2000/svg" xmlns:xlink="http://www.w3.org/1999/xlink" xml:space="preserve"
	x="0px" y="0px" width="118px" height="212px"
>
	<g>
		<path d="M 36.5082 84.0454 C 36.5082 84.0454 18.3027 110.0663 58.5775 143.8381 C 58.5775 143.8381 -18.2875 116.1563 28.2888 45.8445 C 28.2888 45.8445 38.1521 62.7304 54.5907 50.8272 C 71.0294 38.9241 43.9056 39.4777 41.4398 30.8963 C 38.974 22.315 41.7137 11.7959 56.2346 1 C 56.2346 1 40.0698 28.1282 66.0978 35.8791 C 92.1258 43.63 67.7417 60.7927 67.7417 60.7927 C 67.7417 60.7927 36.7821 77.9554 56.2346 87.3672 C 75.6871 96.779 87.4681 60.7927 87.4681 60.7927 C 87.4681 60.7927 120.6194 93.1804 66.0978 143.8381 C 66.0978 143.8381 79.7968 126.9522 77.6049 98.9936 C 77.6049 98.9936 74.5 115.125 56.2738 123.9469 C 47.4773 128.2047 34.3163 90.6891 36.5082 84.0454 Z" stroke="#6291dd" stroke-width="1" fill="#2b8bdb"/>
		<path d="M 47.5294 149.0682 C 47.5294 149.0682 50.6471 168.3644 77.6667 142.81 C 77.6667 142.81 85.3039 185.5745 117 200.177 C 117 200.177 48.8039 225.2099 1 199.134 C 1 199.134 50.4739 191.8327 47.5294 149.0682 Z" stroke="#6291dd" stroke-width="1" fill="#2b8bdb"/>
	</g>
</svg>