<?xml version="1.0" standalone="no"?>
<!-- Generator: Adobe Fireworks 10, Export SVG Extension by Aaron Beall (http://fireworks.abeall.com) . Version: 0.6.1  -->
<!DOCTYPE svg PUBLIC "-//W3C//DTD SVG 1.1//EN" "http://www.w3.org/Graphics/SVG/1.1/DTD/svg11.dtd">
<svg id="post.fw-Page%201" viewBox="0 0 256 256" style="background-color:#ffffff00" version="1.1"
	xmlns="http://www.w3.org/2000/svg" xmlns:xlink="http://www.w3.org/1999/xlink" xml:space="preserve"
	x="0px" y="0px" width="256px" height="256px"
>
	<g id="Layer%201">
		<g>
			<g id="doc">
				<rect x="54.5766" y="22" width="146.4234" height="211" fill="#eeeeee"/>
				<rect x="68.2263" y="38.1353" width="117.8832" height="18.6176" fill="#bbbbbb"/>
				<rect x="143.9197" y="62.9588" width="42.1898" height="8.6882" fill="#bbbbbb"/>
				<rect x="68.2263" y="90.2647" width="117.8832" height="8.6882" fill="#bbbbbb"/>
				<rect x="68.2263" y="105.1588" width="117.8832" height="8.6882" fill="#bbbbbb"/>
				<rect x="68.2263" y="121.2941" width="117.8832" height="8.6882" fill="#bbbbbb"/>
				<rect x="68.2263" y="136.1882" width="117.8832" height="8.6882" fill="#bbbbbb"/>
				<rect x="68.2263" y="152.3235" width="117.8832" height="8.6882" fill="#bbbbbb"/>
				<rect x="68.2263" y="167.2177" width="117.8832" height="8.6882" fill="#bbbbbb"/>
				<rect x="68.2263" y="183.3529" width="117.8832" height="8.6882" fill="#bbbbbb"/>
				<rect x="68.2263" y="198.2471" width="117.8832" height="8.6882" fill="#bbbbbb"/>
			</g>
			<g id="pen">
				<path d="M 38.6004 120.8481 L 31 112.6059 L 41.6444 116.3682 L 38.6004 120.8481 Z" stroke="#ffffff00" stroke-width="1" fill="#4e4b3a"/>
				<path d="M 44.6496 113.8471 L 179.9051 189.352 L 173.7007 198.0402 L 38.4453 125.0176 L 44.6496 113.8471 Z" fill="#fca51c"/>
				<path d="M 45.1827 129.9824 C 45.1827 129.9824 47.5579 126.3364 49.7295 123.3886 C 51.901 120.4408 52.0949 116.8846 52.0949 116.8846 C 52.0949 116.8846 44.2666 110.931 39.1782 115.6939 C 39.1782 115.6939 31.4653 125.7158 45.1827 129.9824 Z" fill="#023d5b"/>
				<path d="M 150.1241 170.9412 C 150.1241 170.9412 153.4331 173.4235 148.8832 179.6294 C 148.8832 179.6294 142.8857 184.5941 142.6788 184.5941 C 142.472 184.5941 114.5523 168.8726 114.1387 168.4588 C 113.7251 168.0451 112.0706 169.2863 114.1387 170.9412 L 148.8832 192.0412 C 148.8832 192.0412 157.7762 193.0755 161.292 192.0412 C 161.292 192.0412 165.4282 190.5932 166.2555 188.3177 C 166.2555 188.3177 168.0392 186.9213 167.4964 180.8706 L 150.1241 170.9412 Z" stroke="#ffffff00" stroke-width="1" fill="#001d4d"/>
				<path d="M 174.1273 186.068 C 174.1273 186.068 174.0818 188.3118 172.6537 191.1103 C 170.7536 194.8338 168.6179 195.1676 168.7372 195.7647 C 168.9699 196.9283 175.562 201.0397 179.9051 197.0059 C 184.2482 192.9721 178.5479 186.2232 174.1273 186.068 Z" stroke="#ffffff00" stroke-width="1" fill="#4e4b3a"/>
			</g>
		</g>
	</g>
</svg>