<?xml version="1.0" encoding="UTF-8" standalone="no"?><!DOCTYPE svg PUBLIC "-//W3C//DTD SVG 1.1//EN" "http://www.w3.org/Graphics/SVG/1.1/DTD/svg11.dtd"><svg width="200px" height="200px" version="1.1" xmlns="http://www.w3.org/2000/svg" xmlns:xlink="http://www.w3.org/1999/xlink" xml:space="preserve" xmlns:serif="http://www.serif.com/" style="fill-rule:evenodd;clip-rule:evenodd;stroke-linejoin:round;stroke-miterlimit:1.41421;"><path d="M84.25,60.026l0,15.989c0,0 -20.692,0 -37.895,0c-6.024,0 -11.802,2.526 -16.061,7.021c-4.26,4.495 -6.653,10.591 -6.653,16.948l0,0.024c0,6.341 2.4,12.419 6.666,16.883c4.266,4.465 10.046,6.946 16.054,6.893c17.202,-0.151 37.889,-0.334 37.889,-0.334l0,16.524c0,0 -18.94,0 -37.88,0c-20.921,0 -37.881,-17.897 -37.881,-39.974l0,0c0,-22.077 16.96,-39.974 37.881,-39.974l37.88,0Zm31.5,0c0,0 18.94,0 37.88,0c20.921,0 37.881,17.897 37.881,39.974l0,0c0,22.077 -16.96,39.974 -37.881,39.974c-18.94,0 -37.88,0 -37.88,0l0,-16.524c0,0 20.687,0.183 37.889,0.334c6.008,0.053 11.788,-2.428 16.054,-6.893c4.266,-4.464 6.666,-10.542 6.666,-16.883c0,-0.005 0,-0.008 0,-0.008c0,0 0,-0.005 0,-0.016c0,-6.357 -2.393,-12.453 -6.653,-16.948c-4.259,-4.495 -10.037,-7.021 -16.061,-7.021c-17.203,0 -37.895,0 -37.895,0l0,-15.989Zm5.399,47.992l-45.22,0l0,-16.036l45.22,0l0,16.036Z"/></svg>