<?xml version="1.0" encoding="UTF-8" standalone="no"?>
<!DOCTYPE svg PUBLIC "-//W3C//DTD SVG 1.1//EN" "http://www.w3.org/Graphics/SVG/1.1/DTD/svg11.dtd">
<svg width="200px" height="200px" version="1.1" xmlns="http://www.w3.org/2000/svg" xmlns:xlink="http://www.w3.org/1999/xlink" xml:space="preserve" xmlns:serif="http://www.serif.com/" style="fill-rule:evenodd;clip-rule:evenodd;stroke-linejoin:round;stroke-miterlimit:1.41421;">
    <g transform="matrix(3.42318,0,0,3.42318,-0.185011,-39.4119)">
        <path d="M17.116,21.007L23.186,21.007L23.186,37.291C23.186,39.875 23.261,41.549 23.412,42.315C23.671,43.545 24.29,44.533 25.268,45.278C26.245,46.024 27.582,46.396 29.277,46.396C31,46.396 32.298,46.044 33.173,45.34C34.048,44.636 34.575,43.771 34.752,42.746C34.93,41.72 35.019,40.018 35.019,37.639L35.019,21.007L41.089,21.007L41.089,36.798C41.089,40.408 40.925,42.958 40.597,44.448C40.269,45.938 39.664,47.196 38.782,48.221C37.9,49.247 36.721,50.064 35.245,50.672C33.768,51.28 31.84,51.585 29.461,51.585C26.59,51.585 24.413,51.253 22.93,50.59C21.446,49.927 20.274,49.065 19.413,48.006C18.551,46.946 17.984,45.836 17.71,44.673C17.314,42.951 17.116,40.408 17.116,37.045L17.116,21.007Z" style="fill-rule:nonzero;"/>
        <rect x="14.101" y="55.522" width="30.331" height="4.409"/>
    </g>
</svg>
