<?xml version="1.0" encoding="UTF-8" standalone="no"?><!DOCTYPE svg PUBLIC "-//W3C//DTD SVG 1.1//EN" "http://www.w3.org/Graphics/SVG/1.1/DTD/svg11.dtd"><svg width="200px" height="200px" version="1.1" xmlns="http://www.w3.org/2000/svg" xmlns:xlink="http://www.w3.org/1999/xlink" xml:space="preserve" xmlns:serif="http://www.serif.com/" style="fill-rule:evenodd;clip-rule:evenodd;stroke-linejoin:round;stroke-miterlimit:1.41421;"><path d="M44.194,33.378l53.261,0c10.543,0 18.405,0.44 23.586,1.318c5.18,0.879 9.816,2.712 13.906,5.499c4.09,2.787 7.498,6.499 10.225,11.134c2.727,4.635 4.09,9.831 4.09,15.587c0,6.241 -1.682,11.967 -5.044,17.178c-3.363,5.211 -7.923,9.12 -13.679,11.725c8.119,2.363 14.36,6.393 18.723,12.088c4.363,5.696 6.544,12.392 6.544,20.087c0,6.059 -1.409,11.952 -4.226,17.678c-2.818,5.726 -6.666,10.3 -11.543,13.724c-4.878,3.423 -10.892,5.529 -18.042,6.317c-4.484,0.485 -15.3,0.787 -32.447,0.909l-45.354,0l0,-133.244Zm26.903,22.177l0,30.812l17.633,0c10.482,0 16.996,-0.152 19.541,-0.455c4.605,-0.545 8.225,-2.136 10.861,-4.771c2.636,-2.636 3.954,-6.105 3.954,-10.407c0,-4.121 -1.136,-7.468 -3.409,-10.044c-2.272,-2.575 -5.65,-4.135 -10.134,-4.68c-2.666,-0.303 -10.331,-0.455 -22.995,-0.455l-15.451,0Zm0,52.989l0,35.628l24.904,0c9.695,0 15.845,-0.273 18.45,-0.818c3.999,-0.727 7.256,-2.499 9.771,-5.317c2.515,-2.818 3.772,-6.589 3.772,-11.316c0,-3.999 -0.97,-7.392 -2.909,-10.179c-1.939,-2.787 -4.741,-4.817 -8.407,-6.09c-3.666,-1.272 -11.619,-1.908 -23.858,-1.908l-21.723,0Z" style="fill-rule:nonzero;"/></svg>