<?xml version="1.0" encoding="UTF-8" standalone="no"?>
<!DOCTYPE svg PUBLIC "-//W3C//DTD SVG 1.1//EN" "http://www.w3.org/Graphics/SVG/1.1/DTD/svg11.dtd">
<svg width="200px" height="200px" version="1.1" xmlns="http://www.w3.org/2000/svg" xmlns:xlink="http://www.w3.org/1999/xlink" xml:space="preserve" xmlns:serif="http://www.serif.com/" style="fill-rule:evenodd;clip-rule:evenodd;stroke-linejoin:round;stroke-miterlimit:1.41421;">
    <path d="M48.966,166.622L48.966,33.378L92.138,33.378C108.498,33.378 119.162,34.045 124.131,35.378C131.766,37.377 138.158,41.725 143.309,48.42C148.459,55.116 151.034,63.766 151.034,74.369C151.034,82.549 149.55,89.427 146.581,95.001C143.612,100.576 139.84,104.953 135.265,108.135C130.69,111.316 126.04,113.421 121.313,114.451C114.891,115.724 105.59,116.36 93.411,116.36L75.869,116.36L75.869,166.622L48.966,166.622ZM75.869,55.919L75.869,93.729L90.593,93.729C101.197,93.729 108.286,93.032 111.861,91.638C115.436,90.245 118.238,88.063 120.268,85.094C122.298,82.125 123.313,78.671 123.313,74.733C123.313,69.885 121.889,65.886 119.041,62.735C116.193,59.585 112.588,57.615 108.225,56.828C105.014,56.222 98.561,55.919 88.866,55.919L75.869,55.919Z" style="fill-rule:nonzero;"/>
</svg>
