<?xml version="1.0" encoding="UTF-8" standalone="no"?>
<!DOCTYPE svg PUBLIC "-//W3C//DTD SVG 1.1//EN" "http://www.w3.org/Graphics/SVG/1.1/DTD/svg11.dtd">
<svg width="200px" height="200px" version="1.1" xmlns="http://www.w3.org/2000/svg" xmlns:xlink="http://www.w3.org/1999/xlink" xml:space="preserve" xmlns:serif="http://www.serif.com/" style="fill-rule:evenodd;clip-rule:evenodd;stroke-linejoin:round;stroke-miterlimit:1.41421;">
    <path d="M44.194,32.5L97.455,32.5C107.998,32.5 115.86,32.94 121.041,33.818C126.221,34.697 130.857,36.53 134.947,39.317C139.037,42.104 142.445,45.815 145.172,50.451C147.899,55.086 149.262,60.282 149.262,66.038C149.262,72.279 147.58,78.005 144.218,83.216C140.855,88.427 136.295,92.336 130.539,94.941C138.658,97.304 144.899,101.334 149.262,107.029C153.625,112.725 155.806,119.42 155.806,127.116C155.806,133.175 154.397,139.068 151.58,144.794C148.762,150.52 144.914,155.094 140.037,158.518C135.159,161.941 129.145,164.047 121.995,164.835C117.511,165.319 106.695,165.622 89.548,165.744L44.194,165.744L44.194,32.5ZM71.097,54.677L71.097,85.489L88.73,85.489C99.212,85.489 105.726,85.337 108.271,85.034C112.876,84.489 116.496,82.898 119.132,80.262C121.768,77.627 123.086,74.158 123.086,69.856C123.086,65.735 121.95,62.388 119.677,59.812C117.405,57.237 114.027,55.677 109.543,55.132C106.877,54.829 99.212,54.677 86.548,54.677L71.097,54.677ZM71.097,107.665L71.097,143.294L96.001,143.294C105.696,143.294 111.846,143.021 114.451,142.476C118.45,141.749 121.707,139.977 124.222,137.159C126.737,134.341 127.994,130.569 127.994,125.843C127.994,121.844 127.024,118.451 125.085,115.664C123.146,112.876 120.344,110.847 116.678,109.574C113.012,108.302 105.059,107.665 92.82,107.665L71.097,107.665Z" style="fill-rule:nonzero;"/>
</svg>
