<?xml version="1.0" encoding="UTF-8" standalone="no"?>
<!DOCTYPE svg PUBLIC "-//W3C//DTD SVG 1.1//EN" "http://www.w3.org/Graphics/SVG/1.1/DTD/svg11.dtd">
<svg width="200px" height="200px" version="1.1" xmlns="http://www.w3.org/2000/svg" xmlns:xlink="http://www.w3.org/1999/xlink" xml:space="preserve" xmlns:serif="http://www.serif.com/" style="fill-rule:evenodd;clip-rule:evenodd;stroke-linejoin:round;stroke-miterlimit:1.41421;">
    <path d="M84.25,60.026L84.25,76.015C84.25,76.015 63.558,76.015 46.355,76.015C40.331,76.015 34.553,78.541 30.294,83.036C26.034,87.531 23.641,93.627 23.641,99.984L23.641,100.008C23.641,106.349 26.041,112.427 30.307,116.891C34.573,121.356 40.353,123.837 46.361,123.784C63.563,123.633 84.25,123.45 84.25,123.45L84.25,139.974C84.25,139.974 65.31,139.974 46.37,139.974C25.449,139.974 8.489,122.077 8.489,100L8.489,100C8.489,77.923 25.449,60.026 46.37,60.026L84.25,60.026ZM115.75,60.026C115.75,60.026 134.69,60.026 153.63,60.026C174.551,60.026 191.511,77.923 191.511,100L191.511,100C191.511,122.077 174.551,139.974 153.63,139.974C134.69,139.974 115.75,139.974 115.75,139.974L115.75,123.45C115.75,123.45 136.437,123.633 153.639,123.784C159.647,123.837 165.427,121.356 169.693,116.891C173.959,112.427 176.359,106.349 176.359,100.008C176.359,100.003 176.359,100 176.359,100C176.359,100 176.359,99.995 176.359,99.984C176.359,93.627 173.966,87.531 169.706,83.036C165.447,78.541 159.669,76.015 153.645,76.015C136.442,76.015 115.75,76.015 115.75,76.015L115.75,60.026ZM121.149,108.018L75.929,108.018L75.929,91.982L121.149,91.982L121.149,108.018Z"/>
</svg>
