<?xml version="1.0" encoding="UTF-8" standalone="no"?><!DOCTYPE svg PUBLIC "-//W3C//DTD SVG 1.1//EN" "http://www.w3.org/Graphics/SVG/1.1/DTD/svg11.dtd"><svg width="200px" height="200px" version="1.1" xmlns="http://www.w3.org/2000/svg" xmlns:xlink="http://www.w3.org/1999/xlink" xml:space="preserve" xmlns:serif="http://www.serif.com/" style="fill-rule:evenodd;clip-rule:evenodd;stroke-linejoin:round;stroke-miterlimit:1.41421;"><g transform="matrix(3.42318,0,0,3.42318,-0.185011,-38.5338)"><path d="M17.116,21.007l6.07,0l0,16.284c0,2.584 0.075,4.258 0.226,5.024c0.259,1.23 0.878,2.218 1.856,2.963c0.977,0.746 2.314,1.118 4.009,1.118c1.723,0 3.021,-0.352 3.896,-1.056c0.875,-0.704 1.402,-1.569 1.579,-2.594c0.178,-1.026 0.267,-2.728 0.267,-5.107l0,-16.632l6.07,0l0,15.791c0,3.61 -0.164,6.16 -0.492,7.65c-0.328,1.49 -0.933,2.748 -1.815,3.773c-0.882,1.026 -2.061,1.843 -3.537,2.451c-1.477,0.608 -3.405,0.913 -5.784,0.913c-2.871,0 -5.048,-0.332 -6.531,-0.995c-1.484,-0.663 -2.656,-1.525 -3.517,-2.584c-0.862,-1.06 -1.429,-2.17 -1.703,-3.333c-0.396,-1.722 -0.594,-4.265 -0.594,-7.628l0,-16.038Z" style="fill-rule:nonzero;"/><rect x="14.101" y="55.522" width="30.331" height="4.409"/></g></svg>