<?xml version="1.0" encoding="UTF-8" standalone="no"?>
<!DOCTYPE svg PUBLIC "-//W3C//DTD SVG 1.1//EN" "http://www.w3.org/Graphics/SVG/1.1/DTD/svg11.dtd">
<svg width="200px" height="200px" version="1.1" xmlns="http://www.w3.org/2000/svg" xmlns:xlink="http://www.w3.org/1999/xlink" xml:space="preserve" xmlns:serif="http://www.serif.com/" style="fill-rule:evenodd;clip-rule:evenodd;stroke-linejoin:round;stroke-miterlimit:1.41421;">
    <g>
        <g>
            <rect x="48.385" y="39.93" width="134.873" height="23.266"/>
            <path d="M28.338,64.734L23.278,64.734L23.278,45.783C21.43,47.501 19.251,48.772 16.742,49.595L16.742,45.031C18.062,44.602 19.497,43.788 21.046,42.589C22.594,41.39 23.657,39.991 24.233,38.392L28.338,38.392L28.338,64.734Z" style="fill-rule:nonzero;"/>
        </g>
        <g>
            <rect x="48.385" y="85.678" width="134.873" height="23.266"/>
            <path d="M35.382,105.811L35.382,110.482L17.645,110.482C17.837,108.716 18.413,107.043 19.374,105.462C20.334,103.881 22.231,101.785 25.064,99.172C27.345,97.06 28.743,95.629 29.26,94.877C29.956,93.839 30.304,92.813 30.304,91.799C30.304,90.678 30.001,89.816 29.395,89.213C28.788,88.611 27.951,88.31 26.883,88.31C25.826,88.31 24.986,88.626 24.362,89.258C23.737,89.89 23.377,90.94 23.281,92.408L18.239,91.907C18.539,89.139 19.482,87.153 21.066,85.948C22.651,84.743 24.632,84.14 27.009,84.14C29.614,84.14 31.66,84.838 33.149,86.234C34.638,87.63 35.382,89.366 35.382,91.441C35.382,92.622 35.169,93.747 34.743,94.815C34.316,95.882 33.641,97.001 32.717,98.17C32.105,98.945 31,100.061 29.404,101.516C27.807,102.972 26.796,103.938 26.369,104.415C25.943,104.892 25.598,105.358 25.334,105.811L35.382,105.811Z" style="fill-rule:nonzero;"/>
        </g>
        <g>
            <rect x="48.385" y="131.426" width="134.873" height="23.266"/>
            <path d="M18.113,149.268L23.011,148.678C23.167,149.918 23.587,150.867 24.272,151.523C24.956,152.179 25.784,152.507 26.757,152.507C27.801,152.507 28.68,152.114 29.395,151.326C30.109,150.539 30.466,149.477 30.466,148.141C30.466,146.876 30.124,145.874 29.44,145.135C28.755,144.395 27.921,144.025 26.937,144.025C26.288,144.025 25.514,144.15 24.614,144.401L25.172,140.303C26.54,140.339 27.585,140.043 28.305,139.417C29.025,138.791 29.386,137.959 29.386,136.921C29.386,136.038 29.121,135.334 28.593,134.809C28.065,134.284 27.363,134.022 26.486,134.022C25.622,134.022 24.884,134.32 24.272,134.916C23.659,135.513 23.287,136.384 23.155,137.529L18.491,136.742C18.816,135.155 19.305,133.887 19.959,132.939C20.613,131.991 21.526,131.245 22.696,130.702C23.866,130.159 25.178,129.888 26.631,129.888C29.115,129.888 31.108,130.675 32.609,132.25C33.845,133.539 34.464,134.994 34.464,136.616C34.464,138.919 33.197,140.756 30.664,142.128C32.177,142.45 33.386,143.172 34.292,144.293C35.199,145.415 35.652,146.769 35.652,148.356C35.652,150.658 34.806,152.621 33.113,154.243C31.42,155.866 29.314,156.677 26.793,156.677C24.404,156.677 22.423,155.994 20.85,154.628C19.278,153.262 18.365,151.475 18.113,149.268Z" style="fill-rule:nonzero;"/>
        </g>
    </g>
</svg>
