<?xml version="1.0" encoding="UTF-8" standalone="no"?><!DOCTYPE svg PUBLIC "-//W3C//DTD SVG 1.1//EN" "http://www.w3.org/Graphics/SVG/1.1/DTD/svg11.dtd"><svg width="200px" height="200px" version="1.1" xmlns="http://www.w3.org/2000/svg" xmlns:xlink="http://www.w3.org/1999/xlink" xml:space="preserve" xmlns:serif="http://www.serif.com/" style="fill-rule:evenodd;clip-rule:evenodd;stroke-linejoin:round;stroke-miterlimit:1.41421;"><path d="M184.176,90.977l0.074,-0.094l9.52,12.018l-0.088,0.113l0.088,0.112l-9.52,12.019l-0.074,-0.094l-40.726,51.571l-9.52,-12.019l40.74,-51.589l-45.5,-57.617l9.52,-12.019l45.486,57.599Zm-168.352,0l45.486,-57.599l9.52,12.019l-45.5,57.617l40.74,51.589l-9.52,12.019l-40.726,-51.571l-0.074,0.094l-9.52,-12.019l0.088,-0.112l-0.088,-0.113l9.52,-12.018l0.074,0.094Zm66.752,56.077l-17.784,0l0,-88.081l17.784,0l0,34.668l34.848,0l0,-34.668l17.784,0l0,88.081l-17.784,0l0,-38.513l-34.848,0l0,38.513Z"/></svg>