<?xml version="1.0" encoding="UTF-8" standalone="no"?><!DOCTYPE svg PUBLIC "-//W3C//DTD SVG 1.1//EN" "http://www.w3.org/Graphics/SVG/1.1/DTD/svg11.dtd"><svg width="200px" height="200px" version="1.1" xmlns="http://www.w3.org/2000/svg" xmlns:xlink="http://www.w3.org/1999/xlink" xml:space="preserve" xmlns:serif="http://www.serif.com/" style="fill-rule:evenodd;clip-rule:evenodd;stroke-linejoin:round;stroke-miterlimit:1.41421;"><g><g><rect x="48.385" y="42.395" width="134.873" height="23.266"/><path d="M28.338,67.199l-5.06,0l0,-18.951c-1.848,1.718 -4.027,2.989 -6.536,3.812l0,-4.563c1.32,-0.43 2.755,-1.244 4.304,-2.443c1.548,-1.199 2.611,-2.598 3.187,-4.196l4.105,0l0,26.341Z" style="fill-rule:nonzero;"/></g><g><rect x="48.385" y="88.143" width="134.873" height="23.266"/><path d="M35.382,108.276l0,4.671l-17.737,0c0.192,-1.766 0.768,-3.439 1.729,-5.02c0.96,-1.58 2.857,-3.677 5.69,-6.29c2.281,-2.111 3.679,-3.543 4.196,-4.294c0.696,-1.038 1.044,-2.064 1.044,-3.078c0,-1.122 -0.303,-1.984 -0.909,-2.586c-0.607,-0.603 -1.444,-0.904 -2.512,-0.904c-1.057,0 -1.897,0.316 -2.521,0.949c-0.625,0.632 -0.985,1.682 -1.081,3.149l-5.042,-0.501c0.3,-2.768 1.243,-4.754 2.827,-5.959c1.585,-1.205 3.566,-1.807 5.943,-1.807c2.605,0 4.651,0.697 6.14,2.093c1.489,1.396 2.233,3.132 2.233,5.208c0,1.181 -0.213,2.305 -0.639,3.373c-0.427,1.068 -1.102,2.186 -2.026,3.355c-0.612,0.776 -1.717,1.891 -3.313,3.347c-1.597,1.455 -2.608,2.421 -3.035,2.899c-0.426,0.477 -0.771,0.942 -1.035,1.395l10.048,0Z" style="fill-rule:nonzero;"/></g><g><rect x="48.385" y="133.891" width="134.873" height="23.266"/><path d="M18.113,151.734l4.898,-0.591c0.156,1.241 0.576,2.189 1.261,2.845c0.684,0.657 1.512,0.985 2.485,0.985c1.044,0 1.923,-0.394 2.638,-1.181c0.714,-0.788 1.071,-1.85 1.071,-3.186c0,-1.264 -0.342,-2.266 -1.026,-3.006c-0.685,-0.74 -1.519,-1.11 -2.503,-1.11c-0.649,0 -1.423,0.126 -2.323,0.376l0.558,-4.098c1.368,0.036 2.413,-0.259 3.133,-0.886c0.72,-0.626 1.081,-1.458 1.081,-2.496c0,-0.883 -0.265,-1.587 -0.793,-2.112c-0.528,-0.524 -1.23,-0.787 -2.107,-0.787c-0.864,0 -1.602,0.298 -2.214,0.895c-0.613,0.596 -0.985,1.467 -1.117,2.613l-4.664,-0.788c0.325,-1.587 0.814,-2.854 1.468,-3.803c0.654,-0.948 1.567,-1.694 2.737,-2.236c1.17,-0.543 2.482,-0.815 3.935,-0.815c2.484,0 4.477,0.788 5.978,2.363c1.236,1.288 1.855,2.743 1.855,4.366c0,2.302 -1.267,4.14 -3.8,5.512c1.513,0.322 2.722,1.043 3.628,2.165c0.907,1.121 1.36,2.475 1.36,4.062c0,2.303 -0.846,4.265 -2.539,5.887c-1.693,1.623 -3.799,2.434 -6.32,2.434c-2.389,0 -4.37,-0.683 -5.943,-2.049c-1.572,-1.366 -2.485,-3.152 -2.737,-5.359Z" style="fill-rule:nonzero;"/></g></g></svg>