<!-- Generated by IcoMoon.io -->
<svg version="1.1" xmlns="http://www.w3.org/2000/svg" width="24" height="32" viewBox="0 0 24 32">
<title>mantle</title>
<path d="M7.284 12.655c0 0-3.734 3.965 4.527 9.111 0 0-15.767-4.218-6.213-14.932 0 0 2.023 2.573 5.395 0.759s-2.192-1.729-2.698-3.037c-0.506-1.308 0.056-2.911 3.035-4.556 0 0-3.316 4.134 2.023 5.315s0.337 3.796 0.337 3.796c0 0-6.351 2.615-2.36 4.049s6.407-4.049 6.407-4.049c0 0 6.8 4.935-4.384 12.655 0 0 2.81-2.573 2.36-6.833 0 0-0.637 2.458-4.376 3.802-1.804 0.649-4.504-5.068-4.054-6.080z"></path>
<path d="M9.544 22.563c0 0 0.64 2.94 6.182-0.954 0 0 1.567 6.517 8.068 8.742 0 0-13.989 3.815-23.795-0.159 0 0 10.149-1.113 9.544-7.629z"></path>
</svg>
