<?xml version="1.0" encoding="UTF-8" standalone="no"?><!DOCTYPE svg PUBLIC "-//W3C//DTD SVG 1.1//EN" "http://www.w3.org/Graphics/SVG/1.1/DTD/svg11.dtd"><svg width="200px" height="200px" version="1.1" xmlns="http://www.w3.org/2000/svg" xmlns:xlink="http://www.w3.org/1999/xlink" xml:space="preserve" xmlns:serif="http://www.serif.com/" style="fill-rule:evenodd;clip-rule:evenodd;stroke-linejoin:round;stroke-miterlimit:1.41421;"><g><path d="M72.488,80.047c0,0 -22.271,23.65 27.002,54.343c0,0 -94.043,-25.158 -37.058,-89.062c0,0 12.067,15.346 32.179,4.527c20.113,-10.82 -13.074,-10.313 -16.092,-18.115c-3.018,-7.801 0.334,-17.363 18.102,-27.174c0,0 -19.778,24.657 12.066,31.701c31.845,7.045 2.01,22.642 2.01,22.642c0,0 -37.88,15.597 -14.076,24.15c23.805,8.554 38.215,-24.15 38.215,-24.15c0,0 40.559,29.435 -26.149,75.481c0,0 16.761,-15.346 14.077,-40.755c0,0 -3.8,14.66 -26.101,22.677c-10.76,3.871 -26.865,-30.229 -24.181,-36.265l0.006,0Z" style="fill-rule:nonzero;"/><path d="M85.968,139.144c0,0 3.818,17.536 36.873,-5.69c0,0 9.347,38.871 48.122,52.142c0,0 -83.438,22.755 -141.926,-0.948c0,0 60.534,-6.639 56.925,-45.504l0.006,0Z" style="fill-rule:nonzero;"/></g></svg>